<svg width="37" height="26" viewBox="0 0 37 26" fill="none" xmlns="http://www.w3.org/2000/svg">
<path fill-rule="evenodd" clip-rule="evenodd" d="M31.2425 23.4277C29.1564 24.8216 26.7038 25.5656 24.1949 25.5656V18.5886C25.3239 18.5886 26.4276 18.2538 27.3663 17.6266C28.3051 16.9993 29.0367 16.1078 29.4688 15.0647C29.9009 14.0216 30.0139 12.8739 29.7936 11.7666C29.5734 10.6592 29.0297 9.64208 28.2314 8.84375C27.433 8.04541 26.4159 7.50173 25.3086 7.28147C24.2012 7.06121 23.0535 7.17426 22.0104 7.60632C20.9673 8.03837 20.0758 8.77003 19.4485 9.70878C18.8213 10.6475 18.4865 11.7512 18.4865 12.8802H11.5095C11.5095 10.3713 12.2535 7.91869 13.6474 5.83259C15.0413 3.74649 17.0225 2.12057 19.3404 1.16045C21.6584 0.200321 24.209 -0.0508922 26.6697 0.438576C29.1304 0.928044 31.3907 2.13621 33.1648 3.91029C34.9389 5.68437 36.1471 7.94469 36.6365 10.4054C37.126 12.8661 36.8748 15.4167 35.9147 17.7347C34.9545 20.0526 33.3286 22.0338 31.2425 23.4277ZM5.68855 2.33322C7.77465 0.939331 10.2272 0.195347 12.7362 0.195347V7.1723C11.6071 7.1723 10.5035 7.5071 9.56474 8.13435C8.62599 8.7616 7.89433 9.65313 7.46227 10.6962C7.03022 11.7393 6.91717 12.8871 7.13743 13.9944C7.35769 15.1017 7.90137 16.1188 8.6997 16.9172C9.49804 17.7155 10.5152 18.2592 11.6225 18.4795C12.7298 18.6997 13.8776 18.5867 14.9207 18.1546C15.9638 17.7226 16.8553 16.9909 17.4825 16.0522C18.1098 15.1134 18.4446 14.0097 18.4446 12.8807H25.4215C25.4215 15.3897 24.6776 17.8422 23.2837 19.9283C21.8898 22.0144 19.9086 23.6404 17.5906 24.6005C15.2727 25.5606 12.7221 25.8118 10.2614 25.3224C7.80065 24.8329 5.54033 23.6247 3.76625 21.8506C1.99217 20.0766 0.784001 17.8162 0.294533 15.3555C-0.194935 12.8948 0.0562776 10.3442 1.0164 8.02624C1.97653 5.70829 3.60245 3.72711 5.68855 2.33322Z" fill="white"/>
<path fill-rule="evenodd" clip-rule="evenodd" d="M31.2425 23.4277C29.1564 24.8216 26.7038 25.5656 24.1949 25.5656V18.5886C25.3239 18.5886 26.4276 18.2538 27.3663 17.6266C28.3051 16.9993 29.0367 16.1078 29.4688 15.0647C29.9009 14.0216 30.0139 12.8739 29.7936 11.7666C29.5734 10.6592 29.0297 9.64208 28.2314 8.84375C27.433 8.04541 26.4159 7.50173 25.3086 7.28147C24.2012 7.06121 23.0535 7.17426 22.0104 7.60632C20.9673 8.03837 20.0758 8.77003 19.4485 9.70878C18.8213 10.6475 18.4865 11.7512 18.4865 12.8802H11.5095C11.5095 10.3713 12.2535 7.91869 13.6474 5.83259C15.0413 3.74649 17.0225 2.12057 19.3404 1.16045C21.6584 0.200321 24.209 -0.0508922 26.6697 0.438576C29.1304 0.928044 31.3907 2.13621 33.1648 3.91029C34.9389 5.68437 36.1471 7.94469 36.6365 10.4054C37.126 12.8661 36.8748 15.4167 35.9147 17.7347C34.9545 20.0526 33.3286 22.0338 31.2425 23.4277ZM5.68855 2.33322C7.77465 0.939331 10.2272 0.195347 12.7362 0.195347V7.1723C11.6071 7.1723 10.5035 7.5071 9.56474 8.13435C8.62599 8.7616 7.89433 9.65313 7.46227 10.6962C7.03022 11.7393 6.91717 12.8871 7.13743 13.9944C7.35769 15.1017 7.90137 16.1188 8.6997 16.9172C9.49804 17.7155 10.5152 18.2592 11.6225 18.4795C12.7298 18.6997 13.8776 18.5867 14.9207 18.1546C15.9638 17.7226 16.8553 16.9909 17.4825 16.0522C18.1098 15.1134 18.4446 14.0097 18.4446 12.8807H25.4215C25.4215 15.3897 24.6776 17.8422 23.2837 19.9283C21.8898 22.0144 19.9086 23.6404 17.5906 24.6005C15.2727 25.5606 12.7221 25.8118 10.2614 25.3224C7.80065 24.8329 5.54033 23.6247 3.76625 21.8506C1.99217 20.0766 0.784001 17.8162 0.294533 15.3555C-0.194935 12.8948 0.0562776 10.3442 1.0164 8.02624C1.97653 5.70829 3.60245 3.72711 5.68855 2.33322Z" fill="url(#paint0_linear_941_13509)"/>
<defs>
<linearGradient id="paint0_linear_941_13509" x1="17.9934" y1="0.194834" x2="18.2175" y2="24.2673" gradientUnits="userSpaceOnUse">
<stop stop-color="#FF9753"/>
<stop offset="1" stop-color="#FB3F02"/>
</linearGradient>
</defs>
</svg>
