<svg width="164" height="32" viewBox="0 0 164 32" fill="none" xmlns="http://www.w3.org/2000/svg">
<path fill-rule="evenodd" clip-rule="evenodd" d="M22.4608 23.2408C21.0923 24.1552 19.4834 24.6432 17.8376 24.6432V20.0663C18.5782 20.0663 19.3022 19.8467 19.918 19.4352C20.5338 19.0238 21.0138 18.4389 21.2972 17.7547C21.5807 17.0704 21.6548 16.3175 21.5103 15.5911C21.3659 14.8646 21.0092 14.1974 20.4855 13.6737C19.9618 13.15 19.2945 12.7933 18.5681 12.6488C17.8417 12.5044 17.0888 12.5785 16.4045 12.8619C15.7203 13.1454 15.1354 13.6253 14.724 14.2412C14.3125 14.857 14.0929 15.581 14.0929 16.3216H9.51597C9.51597 14.6758 10.004 13.0669 10.9184 11.6984C11.8328 10.3299 13.1325 9.26329 14.653 8.63345C16.1736 8.00361 17.8468 7.83881 19.461 8.1599C21.0753 8.48099 22.558 9.27355 23.7218 10.4373C24.8856 11.6011 25.6782 13.0839 25.9993 14.6981C26.3204 16.3124 26.1556 17.9856 25.5257 19.5062C24.8959 21.0267 23.8293 22.3264 22.4608 23.2408ZM5.69837 9.40265C7.06686 8.48826 8.67575 8.0002 10.3216 8.0002V12.5771C9.58098 12.5771 8.85697 12.7967 8.24115 13.2082C7.62534 13.6197 7.14537 14.2045 6.86194 14.8888C6.57851 15.573 6.50435 16.326 6.64884 17.0524C6.79333 17.7788 7.14998 18.446 7.67369 18.9697C8.1974 19.4934 8.86465 19.8501 9.59105 19.9946C10.3175 20.1391 11.0704 20.0649 11.7547 19.7815C12.4389 19.4981 13.0238 19.0181 13.4352 18.4023C13.8467 17.7865 14.0663 17.0624 14.0663 16.3218H18.6432C18.6432 17.9677 18.1552 19.5766 17.2408 20.945C16.3264 22.3135 15.0267 23.3801 13.5062 24.01C11.9856 24.6398 10.3124 24.8046 8.69815 24.4835C7.08391 24.1624 5.60114 23.3699 4.43735 22.2061C3.27355 21.0423 2.48099 19.5595 2.1599 17.9453C1.83881 16.331 2.00361 14.6578 2.63345 13.1373C3.26329 11.6167 4.32989 10.317 5.69837 9.40265Z" fill="white"/>
<path fill-rule="evenodd" clip-rule="evenodd" d="M22.4608 23.2408C21.0923 24.1552 19.4834 24.6432 17.8376 24.6432V20.0663C18.5782 20.0663 19.3022 19.8467 19.918 19.4352C20.5338 19.0238 21.0138 18.4389 21.2972 17.7547C21.5807 17.0704 21.6548 16.3175 21.5103 15.5911C21.3659 14.8646 21.0092 14.1974 20.4855 13.6737C19.9618 13.15 19.2945 12.7933 18.5681 12.6488C17.8417 12.5044 17.0888 12.5785 16.4045 12.8619C15.7203 13.1454 15.1354 13.6253 14.724 14.2412C14.3125 14.857 14.0929 15.581 14.0929 16.3216H9.51597C9.51597 14.6758 10.004 13.0669 10.9184 11.6984C11.8328 10.3299 13.1325 9.26329 14.653 8.63345C16.1736 8.00361 17.8468 7.83881 19.461 8.1599C21.0753 8.48099 22.558 9.27355 23.7218 10.4373C24.8856 11.6011 25.6782 13.0839 25.9993 14.6981C26.3204 16.3124 26.1556 17.9856 25.5257 19.5062C24.8959 21.0267 23.8293 22.3264 22.4608 23.2408ZM5.69837 9.40265C7.06686 8.48826 8.67575 8.0002 10.3216 8.0002V12.5771C9.58098 12.5771 8.85697 12.7967 8.24115 13.2082C7.62534 13.6197 7.14537 14.2045 6.86194 14.8888C6.57851 15.573 6.50435 16.326 6.64884 17.0524C6.79333 17.7788 7.14998 18.446 7.67369 18.9697C8.1974 19.4934 8.86465 19.8501 9.59105 19.9946C10.3175 20.1391 11.0704 20.0649 11.7547 19.7815C12.4389 19.4981 13.0238 19.0181 13.4352 18.4023C13.8467 17.7865 14.0663 17.0624 14.0663 16.3218H18.6432C18.6432 17.9677 18.1552 19.5766 17.2408 20.945C16.3264 22.3135 15.0267 23.3801 13.5062 24.01C11.9856 24.6398 10.3124 24.8046 8.69815 24.4835C7.08391 24.1624 5.60114 23.3699 4.43735 22.2061C3.27355 21.0423 2.48099 19.5595 2.1599 17.9453C1.83881 16.331 2.00361 14.6578 2.63345 13.1373C3.26329 11.6167 4.32989 10.317 5.69837 9.40265Z" fill="url(#paint0_linear_420_1668)"/>
<path fill-rule="evenodd" clip-rule="evenodd" d="M36.1267 10.9215H33.9193V16.6824C33.9193 17.2565 33.9852 17.8289 34.116 18.3988L34.1262 18.4435L34.1429 18.4858C34.5544 19.5295 35.1164 20.3531 35.8473 20.9142C36.582 21.4781 37.4508 21.7488 38.4277 21.7488H41.8543C42.4125 21.7488 42.9762 21.6362 43.5428 21.419L43.5726 21.4076L43.6009 21.3924C44.4684 20.9287 45.1528 20.3381 45.6198 19.6047C46.0898 18.8665 46.319 18.0156 46.319 17.0735V10.9215H44.1116V17.0735C44.1116 17.3034 44.0766 17.5148 44.0092 17.7115C43.7957 18.3012 43.5077 18.7031 43.1639 18.961C42.8202 19.2189 42.3793 19.364 41.8106 19.364H38.565C38.1829 19.364 37.8513 19.3078 37.5645 19.2041C37.0695 18.9862 36.7236 18.6707 36.4951 18.2659C36.2613 17.8516 36.1267 17.3013 36.1267 16.5813V10.9215ZM55.3943 10.9485H47.297V21.7488H49.5044V13.3333H55.3506C55.5126 13.3333 55.7086 13.3653 55.9429 13.4413C56.4804 13.6884 56.8492 14.0059 57.0865 14.3755C57.3259 14.7483 57.4581 15.2152 57.4581 15.8058V21.7488H59.6655V15.6103C59.6655 15.1829 59.592 14.7024 59.4595 14.1777L59.4482 14.1331L59.4306 14.091C59.0104 13.0919 58.4669 12.3014 57.7823 11.7607C57.0919 11.2153 56.2885 10.9485 55.3943 10.9485ZM62.8821 10.9215H60.6747V16.9791C60.6747 17.7973 60.8463 18.5536 61.1977 19.235L61.2003 19.24L61.2029 19.2449C62.0945 20.8954 63.4403 21.7488 65.1831 21.7488H70.6028V19.364H65.3641C65.1565 19.364 64.8853 19.3379 64.5446 19.28C63.9504 19.0221 63.5435 18.7009 63.2836 18.3391C63.0214 17.974 62.8821 17.5307 62.8821 16.9791V10.9215ZM76.2286 10.9485H71.8679V13.2861H72.9664V19.4112H71.8679V21.7488H76.2286V19.4112H75.0864V13.2861H76.2286V10.9485ZM85.385 10.9215H77.1317V21.7488H79.3391V13.3063H82.206V21.7488H84.4571V13.3063H85.204C85.2854 13.3063 85.4081 13.3161 85.5794 13.3406C86.2026 13.5768 86.6276 13.8953 86.8991 14.2694C87.1734 14.6473 87.324 15.1269 87.324 15.7451V21.7488H89.5314V15.5428C89.5314 14.9625 89.4036 14.3481 89.1698 13.7068L89.1543 13.6644L89.1328 13.6251C88.1901 11.9005 86.9444 10.9215 85.385 10.9215ZM102.953 13.3063V10.9215H94.6496C94.097 10.9215 93.5136 11.1046 92.91 11.4258L92.8951 11.4337L92.8807 11.4426C91.3223 12.4069 90.5094 13.8594 90.5094 15.7451V16.9252C90.5094 17.349 90.5614 17.7894 90.661 18.2445L90.6686 18.2792L90.6802 18.3127C91.0582 19.4101 91.6074 20.2787 92.35 20.871C93.096 21.466 93.9957 21.7488 95.0178 21.7488H102.953V19.364H95.1988C94.7806 19.364 94.5263 19.3149 94.3917 19.2568L94.3784 19.251L94.3647 19.246C93.7772 19.0311 93.3778 18.7163 93.121 18.3253C92.8639 17.9335 92.7168 17.4147 92.7168 16.7296V15.8395C92.7168 15.4244 92.7818 15.0837 92.8966 14.8047C93.1475 14.2637 93.4358 13.8942 93.7468 13.6595C94.0547 13.4272 94.4116 13.3063 94.8368 13.3063H102.953ZM112.072 10.8945H103.887V13.2861H111.978C112.256 13.2861 112.608 13.3778 113.044 13.6034C113.359 13.8297 113.61 14.1133 113.799 14.4617H103.887V16.8173C103.887 17.4262 103.972 17.9827 104.158 18.4724L104.159 18.4745C104.563 19.5255 105.132 20.3535 105.882 20.9162C106.635 21.4804 107.532 21.7488 108.545 21.7488H116.318V15.4821C116.318 14.8069 116.175 14.1706 115.888 13.5821L115.886 13.5771L115.883 13.5721C114.999 11.8419 113.723 10.8945 112.072 10.8945ZM106.598 18.3781C106.913 18.794 107.407 19.1202 108.136 19.3185C108.336 19.3438 108.563 19.3572 108.82 19.3572H114.104V16.8465H106.106C106.138 17.5034 106.313 18.0014 106.598 18.3781ZM129.702 13.3131V10.9282H121.586C121.135 10.9282 120.653 11.0232 120.145 11.1982L120.11 11.2102L120.077 11.2272C119.179 11.6905 118.471 12.289 117.987 13.0396C117.501 13.7949 117.265 14.6708 117.265 15.644V16.8667H127.451V17.0803C127.451 17.1693 127.442 17.3042 127.418 17.493C127.221 18.1557 126.929 18.6074 126.568 18.8983C126.2 19.195 125.711 19.364 125.062 19.364H117.265V21.7488H125.15C125.788 21.7488 126.404 21.6201 126.996 21.3635L127.022 21.3521L127.047 21.3377C128.736 20.3694 129.658 18.945 129.658 17.0803V14.4819H119.806C119.98 14.1568 120.175 13.9112 120.385 13.7326C120.707 13.4586 121.098 13.3131 121.586 13.3131H129.702ZM135.003 10.9485H130.642V13.2861H131.741V19.4112H130.642V21.7488H135.003V19.4112H133.861V13.2861H135.003V10.9485ZM144.004 10.9485H135.906V21.7488H138.114V13.3333H143.96C144.122 13.3333 144.318 13.3653 144.552 13.4413C145.09 13.6884 145.458 14.0059 145.696 14.3755C145.935 14.7483 146.067 15.2152 146.067 15.8058V21.7488H148.275V15.6103C148.275 15.1829 148.201 14.7024 148.069 14.1777L148.058 14.1331L148.04 14.091C147.62 13.0919 147.076 12.3014 146.392 11.7607C145.701 11.2153 144.898 10.9485 144.004 10.9485ZM161.24 13.6064L161.227 13.5758L161.212 13.547C160.306 11.8684 159.039 10.9485 157.425 10.9485H153.555C153.299 10.9485 152.975 10.9883 152.598 11.0578L152.549 11.0668L152.503 11.0853C151.477 11.4951 150.663 12.0871 150.108 12.8862C149.55 13.6898 149.284 14.6585 149.284 15.7586V16.9387C149.284 17.3626 149.336 17.8011 149.436 18.2526L149.443 18.2868L149.455 18.3199C149.833 19.4146 150.381 20.2814 151.121 20.8725C151.865 21.4664 152.762 21.7488 153.78 21.7488H157.15C157.683 21.7488 158.211 21.6552 158.733 21.4707L158.76 21.461L158.787 21.4482C159.701 21.0015 160.423 20.4124 160.916 19.6623C161.412 18.9072 161.652 18.0247 161.652 17.0398V15.8863V15.4414L161.639 15.0821C161.596 14.631 161.454 14.1351 161.24 13.6064ZM153.152 19.2602L153.143 19.2564L153.134 19.2529C152.548 19.0381 152.15 18.7239 151.894 18.3339C151.638 17.9432 151.491 17.426 151.491 16.7431V15.8598C151.491 15.4441 151.555 15.1024 151.666 14.8225C151.917 14.2854 152.204 13.9183 152.513 13.685C152.82 13.4536 153.176 13.3333 153.599 13.3333H157.338C157.486 13.3333 157.693 13.3643 157.971 13.442C158.499 13.7187 158.862 14.0345 159.094 14.3727C159.326 14.7128 159.445 15.1024 159.445 15.5631V16.8443C159.445 17.0861 159.42 17.3121 159.371 17.5236C159.18 18.1762 158.887 18.6205 158.517 18.9071C158.143 19.1971 157.64 19.364 156.969 19.364H153.961C153.546 19.364 153.29 19.3172 153.152 19.2602Z" fill="white"/>
<defs>
<linearGradient id="paint0_linear_420_1668" x1="13.7699" y1="8.00001" x2="13.9169" y2="23.7915" gradientUnits="userSpaceOnUse">
<stop stop-color="#FF9753"/>
<stop offset="1" stop-color="#FB3F02"/>
</linearGradient>
</defs>
</svg>
